<?xml version="1.0" encoding="UTF-8" standalone="no"?>
<svg width="20px" height="20px" viewBox="0 0 20 20" version="1.1" xmlns="http://www.w3.org/2000/svg" xmlns:xlink="http://www.w3.org/1999/xlink" xmlns:sketch="http://www.bohemiancoding.com/sketch/ns">
    <!-- Generator: Sketch 3.2.1 (9971) - http://www.bohemiancoding.com/sketch -->
    <title>Fill 205</title>
    <desc>Created with Sketch.</desc>
    <defs></defs>
    <g id="Page-1" stroke="none" stroke-width="1" fill="none" fill-rule="evenodd" sketch:type="MSPage">
        <g id="Desktop-HD-2" sketch:type="MSArtboardGroup" transform="translate(-318.000000, -818.000000)" fill="#FFFFFF">
            <g id="POPUP" sketch:type="MSLayerGroup" transform="translate(307.000000, 808.000000)">
                <path d="M19.5818182,27.2161047 C18.175,27.1706497 17.0045455,27.7183832 16.1477273,28.7456676 C17.5863636,29.5434039 19.2386364,30 21,30 C21.85,30 22.6727273,29.8934079 23.4613636,29.6934056 C22.7068182,28.1456607 21.3909091,27.2751963 19.5818182,27.2161047 L19.5818182,27.2161047 Z M27.2,17.7887249 C24.0227273,15.900067 18.7818182,15.7273378 15.7477273,16.6478028 C15.2613636,16.7978045 14.7454545,16.5205286 14.5977273,16.0341595 C14.45,15.5455176 14.725,15.0318754 15.2113636,14.8841464 C18.6954545,13.8273162 24.4840909,14.0295912 28.1409091,16.2023432 C28.5795455,16.4637098 28.7227273,17.0273526 28.4636364,17.4659939 C28.2022727,17.9046353 27.6386364,18.0478187 27.2,17.7887249 L27.2,17.7887249 Z M27.0954545,20.7273946 C26.8727273,21.0887624 26.4,21.2024 26.0386364,20.9796702 C23.3909091,19.3501063 19.35,18.8796464 16.2159091,19.8319299 C15.8090909,19.9546586 15.3795455,19.7251105 15.2568182,19.3182877 C15.1340909,18.9114649 15.3636364,18.4841873 15.7681818,18.3614587 C19.35,17.2728099 23.8,17.8000886 26.8431818,19.6705644 C27.2045455,19.8932942 27.3181818,20.3637541 27.0954545,20.7273946 L27.0954545,20.7273946 Z M25.8886364,23.5637905 C25.7136364,23.8547029 25.3363636,23.945613 25.0454545,23.7683383 C22.7295455,22.3546858 19.8181818,22.0342277 16.3840909,22.8183275 C16.0545455,22.8933283 15.725,22.6865078 15.65,22.3546858 C15.5727273,22.0251366 15.7795455,21.6955874 16.1113636,21.6205866 C19.8659091,20.7614859 23.0886364,21.1342174 25.6863636,22.7183263 C25.975,22.8956011 26.0681818,23.2751509 25.8886364,23.5637905 L25.8886364,23.5637905 Z M21,10 C15.4772727,10 11,14.4773236 11,20.0001136 C11,22.5251423 11.9363636,24.829714 13.4795455,26.5888249 C15.0431818,25.0251707 17.1863636,24.1456153 19.6454545,24.2274344 C22.7840909,24.3274355 25.2613636,25.8138161 26.6818182,28.2297526 C29.2909091,26.4251866 31,23.4137888 31,20.0001136 C31,14.4773236 26.5227273,10 21,10 L21,10 Z" id="Fill-205" sketch:type="MSShapeGroup"></path>
            </g>
        </g>
    </g>
</svg>